<svg xmlns="http://www.w3.org/2000/svg" viewBox="0 0 512 512" fill="currentColor" width="{{ .size | default "32px" }}" height="{{ .size | default "32px" }}">
  <path fill="currentColor" d="M111.8 62.2C170.2 105.9 233 194.7 256 242.4c23-47.6 85.8-136.4 144.2-180.2c42.1-31.6 110.3-56 110.3 21.8c0 15.5-8.9 130.5-14.1 149.2C478.1 308 420.4 322.2 373 308.1c98.3 18.9 113.9 115.4 64.9 160.8c-11.8 10.9-28.5 13.9-43.5 13.9c-70 0-126.3-88.8-138.4-110.1c-12.1 21.3-68.3 110.1-138.4 110.1c-15 0-31.7-3-43.5-13.9C23.1 424.3 38.7 327 137 308.1C89.6 322.2 31.9 308 13.6 233.3C8.5 214.5 0 100.5 0 85c0-77.8 68.2-53.4 110.3-21.8Z"/>
</svg>